<svg width="76" height="63" viewBox="0 0 76 63" fill="none" xmlns="http://www.w3.org/2000/svg">
<path d="M45.723 22.7363C46.1156 22.3329 46.7637 22.3329 47.1563 22.7363L70.3353 46.5525C70.9522 47.1863 70.5031 48.25 69.6187 48.25H23.2606C22.3762 48.25 21.9271 47.1863 22.5439 46.5525L45.723 22.7363Z" fill="url(#paint0_angular)"/>
<g filter="url(#filter0_d)">
<path d="M43.723 28.7363C44.1156 28.3329 44.7637 28.3329 45.1563 28.7363L68.3353 52.5525C68.9522 53.1863 68.5031 54.25 67.6187 54.25H21.2606C20.3762 54.25 19.9271 53.1863 20.5439 52.5525L43.723 28.7363Z" fill="url(#paint1_linear)"/>
</g>
<g filter="url(#filter1_d)">
<path d="M18.543 19.5555C18.536 18.9934 18.9934 18.536 19.5555 18.543L48.6606 18.9076C49.5454 18.9187 49.9809 19.9889 49.3552 20.6146L20.6146 49.3552C19.9889 49.9809 18.9187 49.5454 18.9076 48.6606L18.543 19.5555Z" fill="url(#paint2_linear)"/>
</g>
<defs>
<filter id="filter0_d" x="18.2586" y="26.4338" width="52.3621" height="29.8162" filterUnits="userSpaceOnUse" color-interpolation-filters="sRGB">
<feFlood flood-opacity="0" result="BackgroundImageFix"/>
<feColorMatrix in="SourceAlpha" type="matrix" values="0 0 0 0 0 0 0 0 0 0 0 0 0 0 0 0 0 0 127 0"/>
<feOffset/>
<feGaussianBlur stdDeviation="1"/>
<feColorMatrix type="matrix" values="0 0 0 0 0 0 0 0 0 0 0 0 0 0 0 0 0 0 0.27 0"/>
<feBlend mode="normal" in2="BackgroundImageFix" result="effect1_dropShadow"/>
<feBlend mode="normal" in="SourceGraphic" in2="effect1_dropShadow" result="shape"/>
</filter>
<filter id="filter1_d" x="1.75702" y="1.75702" width="50.3067" height="50.3067" filterUnits="userSpaceOnUse" color-interpolation-filters="sRGB">
<feFlood flood-opacity="0" result="BackgroundImageFix"/>
<feColorMatrix in="SourceAlpha" type="matrix" values="0 0 0 0 0 0 0 0 0 0 0 0 0 0 0 0 0 0 127 0"/>
<feOffset/>
<feGaussianBlur stdDeviation="1"/>
<feColorMatrix type="matrix" values="0 0 0 0 0 0 0 0 0 0 0 0 0 0 0 0 0 0 0.31 0"/>
<feBlend mode="normal" in2="BackgroundImageFix" result="effect1_dropShadow"/>
<feBlend mode="normal" in="SourceGraphic" in2="effect1_dropShadow" result="shape"/>
</filter>
<radialGradient id="paint0_angular" cx="0" cy="0" r="1" gradientUnits="userSpaceOnUse" gradientTransform="translate(46.4396 39.5) rotate(22.6199) scale(26 43.8286)">
<stop offset="0.463226" stop-color="#C4C4C4"/>
<stop offset="1" stop-color="#7E7E7E"/>
</radialGradient>
<linearGradient id="paint1_linear" x1="44.4396" y1="28" x2="44.4396" y2="63" gradientUnits="userSpaceOnUse">
<stop stop-color="#F2F2F2"/>
<stop offset="1" stop-color="#BBB9B9"/>
</linearGradient>
<linearGradient id="paint2_linear" x1="18.5302" y1="18.5302" x2="40.4698" y2="40.4698" gradientUnits="userSpaceOnUse">
<stop stop-color="#5CA80F"/>
<stop offset="1" stop-color="#74D413"/>
</linearGradient>
</defs>
</svg>
